<svg width="518" height="518" viewBox="0 0 518 518" fill="none" xmlns="http://www.w3.org/2000/svg">
<circle cx="259" cy="259" r="259" fill="#D9D9D9"/>
<path d="M259 41.3301C139.245 41.3301 41.8185 138.757 41.8185 258.511C41.8185 378.265 139.245 475.691 259 475.691C378.754 475.691 476.181 378.265 476.181 258.511C476.181 138.757 378.754 41.3301 259 41.3301ZM259 492.246C130.118 492.246 25.2651 387.393 25.2651 258.511C25.2651 129.63 130.118 24.7767 259 24.7767C387.881 24.7767 492.736 129.63 492.736 258.511C492.736 387.393 387.881 492.246 259 492.246Z" fill="#0E213F"/>
<path d="M218.543 198.208H205.527L217.032 175.522L218.543 198.208ZM175.004 224.348H192.268L198.972 211.13H219.403L220.283 224.348H240.8L231.331 159.441H212.293L175.004 224.348Z" fill="#0E213F"/>
<path d="M333.23 224.348L342.995 159.441H322.182L299.539 197.343L292.49 159.441H283.514H280.554H270.69L252.934 224.348H268.124L279.042 178.301L286.571 220.403H298.408L323.387 178.3L314.882 224.348H333.23Z" fill="#0E213F"/>
<path d="M260.804 266.341C261.419 265.914 261.914 265.346 262.287 264.637C262.662 263.929 262.85 263.16 262.85 262.332C262.85 261.102 262.402 260.113 261.506 259.364C260.611 258.616 259.334 258.242 257.676 258.242H255.151V266.982H258.759C259.507 266.982 260.19 266.769 260.804 266.341Z" fill="#B39241"/>
<path d="M372.774 270.2V280.936H367.602V270.228L358.058 254.553H364.274L370.579 266.244L376.984 254.553H382.398L372.774 270.2ZM355.412 280.936H338.051V254.553H354.05V258.562H342.943V265.62H352.526V269.509H342.943V276.926H355.412V280.936ZM332.658 281.177C331.95 281.31 331.26 281.377 330.592 281.377C329.47 281.377 328.488 281.224 327.646 280.917C326.803 280.609 326.035 280.121 325.34 279.453C324.644 278.785 323.923 277.889 323.175 276.766L318.967 270.336C318.859 270.338 318.752 270.35 318.644 270.35H315.678V280.936H310.786V254.553H318.644C320.648 254.553 322.386 254.833 323.856 255.394C325.327 255.956 326.463 256.752 327.264 257.78C328.067 258.81 328.467 260.033 328.467 261.449C328.467 262.625 328.2 263.749 327.666 264.817C327.131 265.886 326.403 266.836 325.48 267.664C324.819 268.26 324.087 268.761 323.294 269.177L327.987 275.042C328.628 275.818 329.203 276.412 329.711 276.826C330.219 277.241 330.692 277.514 331.134 277.648C331.575 277.782 331.983 277.849 332.358 277.849C332.518 277.849 332.751 277.836 333.059 277.809C333.366 277.782 333.654 277.714 333.92 277.609L335.003 280.454C334.147 280.802 333.366 281.042 332.658 281.177ZM305.392 281.177C304.683 281.31 303.995 281.377 303.327 281.377C302.204 281.377 301.223 281.224 300.379 280.917C299.538 280.609 298.77 280.121 298.074 279.453C297.379 278.785 296.658 277.889 295.91 276.766L291.702 270.336C291.594 270.338 291.487 270.35 291.379 270.35H288.411V280.936H283.519V254.553H291.379C293.383 254.553 295.12 254.833 296.591 255.394C298.062 255.956 299.198 256.752 299.999 257.78C300.802 258.81 301.202 260.033 301.202 261.449C301.202 262.625 300.935 263.749 300.4 264.817C299.866 265.886 299.138 266.836 298.215 267.664C297.552 268.26 296.822 268.761 296.028 269.177L300.722 275.042C301.363 275.818 301.938 276.412 302.446 276.826C302.954 277.241 303.427 277.514 303.868 277.648C304.31 277.782 304.716 277.849 305.092 277.849C305.252 277.849 305.486 277.836 305.794 277.809C306.1 277.782 306.388 277.714 306.655 277.609L307.738 280.454C306.882 280.802 306.1 281.042 305.392 281.177ZM277.664 280.936H260.303V254.553H276.302V258.562H265.195V265.62H274.778V269.509H265.195V276.926H277.664V280.936ZM255.371 258.522H246.71V280.936H241.498V258.522H232.878V254.553H241.498H246.71H255.371V258.522ZM227.946 280.936H225.82H223.976H223.816L208.671 261.224L209.18 280.936H204.53V254.553H206.212H208.498H209.5L223.774 273.1L223.294 254.553H227.946V280.936ZM197.512 273.318C196.764 275.029 195.742 276.492 194.446 277.708C193.148 278.925 191.659 279.853 189.975 280.496C188.291 281.137 186.5 281.457 184.602 281.457C182.008 281.457 179.71 280.876 177.704 279.713C175.7 278.55 174.123 276.946 172.974 274.901C171.824 272.857 171.25 270.537 171.25 267.945C171.25 265.806 171.624 263.882 172.372 262.172C173.12 260.461 174.156 259.004 175.479 257.801C176.803 256.598 178.314 255.669 180.011 255.014C181.707 254.36 183.504 254.03 185.404 254.03C187.97 254.03 190.248 254.613 192.24 255.776C194.231 256.938 195.795 258.536 196.931 260.566C198.068 262.598 198.636 264.925 198.636 267.544C198.636 269.682 198.262 271.608 197.512 273.318ZM160.784 280.936L160.18 260.906L152.083 278.85H149.116L140.859 260.734L140.214 280.936H135.603L137.447 254.553H139.652H141.056H143.182L151.287 272.052L159.06 254.553H164.352L165.876 280.936H160.784Z" fill="#B39241"/>
<path d="M415.388 291.809H102.612L118.928 265.001L102.612 238.195H415.388L399.048 265.001L415.388 291.809Z" fill="#B39241"/>
<path d="M159.06 254.553L151.287 272.052L143.181 254.553H141.056H139.652H137.447L135.603 280.937H140.213L140.859 260.734L149.116 278.852H152.083L160.18 260.906L160.784 280.937H165.876L164.352 254.553H159.06Z" fill="#FFF6ED"/>
<path d="M192.261 273.318C191.646 274.735 190.763 275.831 189.614 276.606C188.465 277.38 187.101 277.768 185.525 277.768C183.946 277.768 182.503 277.342 181.193 276.486C179.883 275.631 178.834 274.407 178.046 272.816C177.257 271.227 176.863 269.335 176.863 267.143C176.863 265.219 177.177 263.548 177.806 262.131C178.434 260.715 179.315 259.624 180.453 258.863C181.587 258.1 182.903 257.719 184.402 257.719C186.031 257.719 187.509 258.147 188.833 259.003C190.154 259.859 191.211 261.075 192.001 262.652C192.789 264.23 193.182 266.127 193.182 268.346C193.182 270.244 192.875 271.902 192.261 273.318ZM192.241 255.775C190.249 254.614 187.97 254.031 185.405 254.031C183.505 254.031 181.707 254.359 180.011 255.014C178.313 255.67 176.803 256.598 175.479 257.8C174.157 259.003 173.121 260.46 172.373 262.171C171.625 263.882 171.25 265.807 171.25 267.944C171.25 270.538 171.825 272.858 172.974 274.902C174.123 276.947 175.701 278.55 177.705 279.714C179.71 280.876 182.009 281.458 184.602 281.458C186.501 281.458 188.291 281.136 189.975 280.495C191.659 279.854 193.149 278.926 194.446 277.708C195.742 276.492 196.763 275.028 197.513 273.318C198.261 271.608 198.637 269.683 198.637 267.544C198.637 264.924 198.067 262.599 196.931 260.567C195.795 258.536 194.231 256.938 192.241 255.775Z" fill="#FFF6ED"/>
<path d="M223.773 273.1L209.5 254.553H208.499H206.213H204.529V280.937H209.18L208.671 261.224L223.816 280.937H223.976H225.82H227.947V254.553H223.295L223.773 273.1Z" fill="#FFF6ED"/>
<path d="M241.497 254.553H232.877V258.522H241.497V280.937H246.709V258.522H255.372V254.553H246.709H241.497Z" fill="#FFF6ED"/>
<path d="M265.195 269.508H274.777V265.619H265.195V258.563H276.301V254.552H260.303V280.936H277.664V276.927H265.195V269.508Z" fill="#FFF6ED"/>
<path d="M288.411 258.242H290.938C292.595 258.242 293.871 258.616 294.766 259.363C295.662 260.112 296.11 261.102 296.11 262.331C296.11 263.16 295.922 263.93 295.548 264.636C295.174 265.346 294.679 265.914 294.064 266.34C293.45 266.768 292.767 266.982 292.02 266.982H288.411V258.242ZM305.794 277.81C305.486 277.835 305.251 277.848 305.091 277.848C304.716 277.848 304.308 277.783 303.868 277.648C303.427 277.515 302.952 277.24 302.444 276.826C301.936 276.412 301.362 275.818 300.722 275.042L296.028 269.176C296.822 268.76 297.552 268.259 298.215 267.664C299.138 266.835 299.864 265.887 300.4 264.816C300.935 263.748 301.202 262.626 301.202 261.448C301.202 260.032 300.8 258.81 299.999 257.78C299.198 256.752 298.062 255.956 296.591 255.395C295.12 254.834 293.383 254.552 291.379 254.552H283.519V280.936H288.411V270.351H291.379C291.487 270.351 291.592 270.339 291.7 270.335L295.91 276.766C296.656 277.888 297.379 278.786 298.074 279.454C298.77 280.12 299.538 280.608 300.379 280.916C301.222 281.223 302.204 281.378 303.327 281.378C303.995 281.378 304.683 281.311 305.391 281.178C306.1 281.043 306.882 280.803 307.738 280.455L306.655 277.608C306.388 277.715 306.1 277.783 305.794 277.81Z" fill="#FFF6ED"/>
<path d="M315.677 258.242H318.204C319.861 258.242 321.137 258.616 322.032 259.363C322.928 260.112 323.376 261.102 323.376 262.331C323.376 263.16 323.188 263.93 322.814 264.636C322.44 265.346 321.945 265.914 321.33 266.34C320.716 266.768 320.033 266.982 319.286 266.982H315.677V258.242ZM333.06 277.81C332.752 277.835 332.517 277.848 332.357 277.848C331.982 277.848 331.574 277.783 331.134 277.648C330.693 277.515 330.218 277.24 329.71 276.826C329.202 276.412 328.628 275.818 327.986 275.042L323.294 269.176C324.088 268.76 324.818 268.259 325.48 267.664C326.402 266.835 327.13 265.887 327.666 264.816C328.201 263.748 328.468 262.626 328.468 261.448C328.468 260.032 328.066 258.81 327.264 257.78C326.462 256.752 325.326 255.956 323.857 255.395C322.385 254.834 320.649 254.552 318.645 254.552H310.785V280.936H315.677V270.351H318.645C318.753 270.351 318.858 270.339 318.966 270.335L323.176 276.766C323.922 277.888 324.645 278.786 325.34 279.454C326.036 280.12 326.804 280.608 327.645 280.916C328.488 281.223 329.47 281.378 330.593 281.378C331.261 281.378 331.949 281.311 332.657 281.178C333.365 281.043 334.148 280.803 335.004 280.455L333.921 277.608C333.654 277.715 333.365 277.783 333.06 277.81Z" fill="#FFF6ED"/>
<path d="M342.942 269.508H352.526V265.619H342.942V258.563H354.05V254.552H338.05V280.936H355.412V276.927H342.942V269.508Z" fill="#FFF6ED"/>
<path d="M370.579 266.244L364.273 254.553H358.058L367.602 270.228V280.936H372.774V270.2L382.398 254.553H376.983L370.579 266.244Z" fill="#FFF6ED"/>
<path d="M137.645 223.195L137.463 224.348H153.823C155.963 208.112 147.347 179.447 136.823 164.792C146.093 155.234 164.737 135.98 175.365 124.772C209.168 147.43 246.521 131.851 259.173 125.335C270.755 131.811 303.552 145.768 343.085 124.115C355.92 136.839 372.932 154.054 380.832 162.782C372.071 175.358 363.545 196.916 363.388 224.348H379.539C379.7 198.507 388.219 180.188 394.7 171.398C396.359 169.148 397.32 166.472 397.511 163.683C397.779 159.746 396.477 155.86 393.865 152.902C383.851 141.558 360.885 118.695 352.16 110.068C350.715 108.639 348.832 107.74 346.812 107.511L343.205 107.1C341.296 106.883 339.356 107.264 337.696 108.231C302.707 128.622 274.179 115.066 266.201 110.387C264.639 109.471 262.879 108.964 261.067 108.902L258.663 108.818C256.376 108.738 254.473 109.166 252.781 110.075C243.555 115.031 210.271 130.21 181.933 109.307C180.255 108.068 178.185 107.471 176.104 107.614L172.053 107.894C169.831 108.047 167.747 109.03 166.22 110.652C156.32 121.168 134.737 143.448 124.929 153.562C121.732 156.859 120.124 161.374 120.512 165.95C120.764 168.92 121.832 171.764 123.639 174.136C131.181 184.039 140.264 211.866 137.645 223.195Z" fill="#0E213F"/>
<path d="M135.477 368.031L388.61 311.164V313.06L192.445 402.508L135.477 368.031Z" fill="#B39241"/>
<path d="M131.342 341.213L385.72 307.321V308.595L131.652 348.047L131.342 341.213Z" fill="#B39241"/>
<path d="M236.199 412.643L390.643 316.523V317.777L258.67 411.499L236.199 412.643Z" fill="#B39241"/>
<path d="M394.116 305.656H379.555C379.591 305.795 379.631 305.931 379.667 306.069C384.458 324.5 387.675 344.335 377.044 361.217C367.494 376.384 351.235 386.7 334.33 389.951C331.295 390.535 328.248 390.987 325.196 391.397C317.2 392.471 309.17 393.224 301.242 395.069C289.62 397.775 278.248 401.659 267.355 406.692C264.378 408.067 261.583 409.873 258.67 411.499C240.491 400.324 219.304 395.171 198.604 392.257C196.776 392 194.956 391.725 193.144 391.432C177.336 388.881 162.244 384.659 150.075 372.819C137.01 360.107 131.456 341.575 134.244 323.559C135.179 317.521 136.462 311.567 137.936 305.656H123.331C117.343 331.925 116.766 358.115 136.667 379.781C151.475 395.901 170.135 403.044 190.847 405.852C201.92 407.353 212.96 409.353 223.707 412.571C231.776 414.987 240.944 417.511 248.311 422.301C251.375 424.293 254.899 425.464 258.554 425.464H258.964C262.526 425.464 266.052 424.527 269.048 422.6C289.896 409.193 315.516 409.016 338.859 404.055C357 400.2 373.036 390.033 384.715 374.992C398.788 356.864 400.895 334.969 395.826 312.665C395.292 310.323 394.714 307.988 394.116 305.656Z" fill="#0E213F"/>
</svg>
