<?xml version="1.0" standalone="no"?>
<!DOCTYPE svg PUBLIC "-//W3C//DTD SVG 20010904//EN"
 "http://www.w3.org/TR/2001/REC-SVG-20010904/DTD/svg10.dtd">
<svg version="1.0" xmlns="http://www.w3.org/2000/svg"
 width="2160.000000pt" height="2161.000000pt" viewBox="0 0 2160.000000 2161.000000"
 preserveAspectRatio="xMidYMid meet">

<g transform="translate(0.000000,2161.000000) scale(0.100000,-0.100000)"
fill="#000000" stroke="none">
<path d="M10495 18174 c-1090 -52 -2103 -318 -3050 -803 -1676 -858 -2958
-2320 -3595 -4102 -142 -396 -267 -899 -334 -1339 -63 -410 -80 -659 -80
-1120 0 -544 34 -915 130 -1415 393 -2038 1655 -3836 3444 -4907 980 -587
1998 -915 3180 -1025 262 -24 958 -24 1220 0 1182 110 2200 438 3180 1025
1789 1071 3051 2869 3444 4907 96 500 130 871 130 1415 0 461 -17 710 -80
1120 -163 1070 -558 2082 -1168 2990 -697 1038 -1642 1877 -2761 2451 -352
181 -643 303 -1025 430 -580 193 -1120 303 -1740 354 -179 15 -732 26 -895 19z
m346 -286 c0 -2 15 -146 33 -320 l32 -317 -59 -6 c-32 -4 -61 -5 -64 -1 -3 3
-13 104 -22 225 -9 121 -18 222 -21 224 -3 3 -43 -89 -88 -204 l-84 -209 -36
0 -37 0 -107 208 -107 207 -1 -237 0 -238 -56 0 -56 0 7 318 c4 174 8 318 9
319 0 1 33 4 72 8 l70 7 103 -201 c57 -111 107 -201 111 -201 4 0 40 84 80
188 40 103 79 197 86 210 12 19 23 22 74 22 33 0 60 -1 61 -2z m851 -58 c83
-25 147 -81 185 -158 24 -49 27 -69 28 -147 0 -82 -3 -96 -33 -157 -37 -76
-83 -120 -162 -157 -45 -21 -70 -26 -140 -26 -77 0 -92 3 -152 33 -125 61
-183 163 -176 308 5 103 38 174 110 238 89 80 215 105 340 66z m715 -130 l41
-10 62 -148 c153 -363 154 -364 160 -345 4 10 26 101 50 203 24 102 46 189 51
194 6 7 93 -9 107 -20 3 -2 -157 -616 -162 -621 -1 -1 -24 5 -51 13 l-50 14
-110 266 c-60 146 -112 267 -115 269 -3 2 -29 -96 -58 -217 -29 -122 -54 -223
-56 -225 -8 -8 -98 20 -102 32 -4 10 128 534 151 603 3 7 13 11 22 8 10 -3 37
-10 60 -16z m-3025 -288 c103 -150 188 -276 188 -281 0 -11 -115 -35 -128 -27
-6 3 -30 38 -53 76 -24 39 -50 70 -57 70 -13 0 -60 -11 -174 -41 -34 -9 -38
-13 -38 -43 0 -18 -3 -60 -6 -94 l-7 -60 -58 -15 c-32 -8 -60 -13 -62 -11 -2
2 18 154 44 336 27 183 49 336 49 340 0 8 70 27 94 25 13 -1 80 -91 208 -275z
m-732 -211 c56 -161 98 -297 93 -301 -15 -14 -107 -40 -114 -33 -10 12 -211
594 -206 599 10 10 113 41 118 35 4 -3 53 -138 109 -300z m4818 158 c136 -55
248 -102 250 -103 8 -8 -32 -86 -43 -86 -8 0 -51 16 -96 35 -46 19 -86 32 -90
27 -4 -4 -51 -115 -104 -247 -53 -132 -98 -241 -100 -243 -6 -7 -115 42 -115
52 0 6 43 115 95 243 52 127 96 236 97 242 2 7 -35 28 -82 47 -47 20 -89 40
-94 44 -8 8 20 90 31 90 2 0 115 -45 251 -101z m-5289 -328 c84 -150 151 -275
149 -276 -17 -15 -113 -55 -115 -49 -2 5 -51 99 -109 209 l-105 200 5 -231 6
-230 -34 -17 -35 -16 -178 148 c-98 82 -179 148 -180 147 -2 -2 40 -98 92
-215 53 -117 93 -216 91 -220 -6 -10 -96 -45 -101 -40 -4 5 -226 558 -232 579
-3 11 15 24 61 43 l65 29 163 -134 c90 -74 169 -138 177 -143 12 -7 13 25 7
218 l-6 227 57 29 c32 16 61 26 64 23 4 -4 75 -130 158 -281z m5998 -7 c87
-47 162 -89 166 -94 8 -7 -27 -90 -38 -90 -2 0 -54 27 -115 61 -60 33 -114 57
-120 54 -11 -7 -70 -119 -70 -133 0 -5 40 -30 90 -56 49 -26 92 -51 95 -56 3
-5 -4 -28 -15 -50 l-21 -41 -67 37 c-37 20 -82 46 -100 57 -18 10 -35 17 -37
15 -2 -2 -22 -36 -44 -76 l-39 -71 31 -20 c18 -10 76 -42 130 -71 53 -28 97
-57 97 -63 0 -15 -37 -77 -46 -77 -13 0 -364 194 -364 201 0 14 297 559 305
559 2 0 75 -39 162 -86z m-2807 -138 c1292 -130 2443 -621 3420 -1460 138
-119 427 -403 550 -541 807 -904 1318 -1986 1494 -3165 52 -346 61 -477 61
-910 0 -398 -5 -483 -41 -770 -190 -1518 -953 -2916 -2134 -3907 -916 -769
-2047 -1256 -3225 -1387 -446 -50 -944 -50 -1390 0 -2003 224 -3775 1443
-4721 3249 -367 701 -577 1422 -666 2290 -20 194 -17 891 5 1100 85 807 288
1505 637 2190 306 600 681 1109 1171 1590 311 305 573 517 924 748 894 588
1902 919 3010 991 141 9 757 -4 905 -18z m-4302 -121 c12 -19 22 -39 22 -45 0
-5 -47 -41 -105 -80 -58 -39 -105 -73 -105 -76 0 -2 19 -34 43 -69 l43 -64 90
59 c49 33 94 60 101 60 10 0 53 -59 53 -72 0 -3 -43 -33 -94 -68 l-95 -62 46
-69 c25 -38 50 -69 55 -69 5 0 62 36 128 80 l119 80 26 -37 c14 -21 25 -41 25
-45 0 -6 -275 -194 -337 -232 -8 -4 -69 78 -184 251 -95 141 -172 263 -173
270 -1 10 296 220 314 222 3 1 15 -15 28 -34z m7714 -106 c139 -100 188 -161
188 -236 0 -86 -78 -159 -181 -170 l-54 -5 6 -109 c7 -125 18 -158 59 -182 26
-16 28 -20 20 -48 -5 -18 -12 -34 -14 -37 -13 -13 -98 33 -134 72 -49 53 -57
93 -49 243 l5 103 -28 20 c-16 11 -31 20 -34 20 -3 0 -37 -45 -76 -100 -39
-55 -73 -100 -76 -100 -10 0 -89 62 -89 71 0 21 360 519 371 515 7 -3 46 -28
86 -57z m-8289 -431 c23 -7 64 -34 97 -65 132 -122 151 -293 47 -440 -25 -35
-218 -213 -231 -213 -2 0 -98 109 -212 242 l-207 242 59 53 c97 88 186 152
239 173 58 22 149 26 208 8z m9120 -257 c36 -66 41 -102 22 -147 -9 -21 -23
-47 -33 -58 -29 -32 -93 -56 -153 -56 -69 0 -69 0 -69 -153 0 -107 1 -109 29
-138 27 -26 28 -32 18 -59 -7 -17 -19 -30 -28 -30 -30 0 -103 64 -126 110 -28
54 -28 83 -4 222 l18 107 -27 26 -28 26 -49 -53 c-27 -29 -67 -72 -89 -96
l-39 -43 -43 44 -43 44 216 236 217 237 93 -86 c53 -49 104 -106 118 -133z
m-9691 -537 c159 -60 288 -111 288 -114 -1 -3 -20 -26 -44 -52 l-44 -48 -88
37 -87 36 -73 -79 c-40 -43 -73 -82 -74 -85 0 -4 21 -43 47 -89 l46 -82 -44
-44 -44 -44 -155 310 -155 310 39 39 c38 38 40 39 70 27 17 -7 160 -62 318
-122z m10232 1 c64 -74 119 -140 121 -148 3 -7 -10 -27 -28 -45 l-34 -33 -84
100 c-46 55 -88 100 -94 100 -5 0 -36 -23 -67 -52 l-58 -52 75 -86 74 -86 -35
-34 -36 -34 -51 60 c-29 32 -63 72 -77 88 l-26 29 -62 -53 c-34 -28 -62 -57
-62 -62 0 -5 41 -56 90 -113 50 -57 90 -107 90 -112 0 -4 -14 -21 -30 -37 -22
-21 -35 -27 -45 -20 -7 6 -71 77 -141 158 l-127 148 24 24 c40 40 454 395 460
395 3 0 58 -61 123 -135z m-10931 -441 l28 -56 -22 -5 c-53 -14 -106 -52 -136
-97 -65 -95 -33 -205 80 -283 61 -41 118 -57 185 -50 106 11 175 88 176 199
l1 60 35 -6 c19 -3 44 -6 54 -6 17 0 18 -6 13 -54 -12 -117 -116 -261 -220
-306 -115 -50 -259 -17 -359 83 -72 73 -93 124 -93 232 0 76 4 99 26 146 32
68 88 132 148 171 25 15 48 28 51 28 3 0 18 -25 33 -56z m11301 -19 c20 -30
36 -59 36 -65 0 -6 -32 -71 -71 -145 -44 -83 -66 -135 -57 -135 7 0 78 7 158
15 79 8 147 11 151 7 3 -4 21 -27 38 -51 23 -33 28 -47 19 -52 -7 -4 -105 -10
-218 -13 l-205 -7 -113 -76 c-62 -41 -114 -74 -116 -72 -36 46 -66 103 -59
110 5 5 54 39 108 77 l99 67 90 198 c49 108 92 197 96 197 4 0 24 -25 44 -55z
m-11606 -864 c178 -21 325 -41 328 -44 6 -6 -42 -103 -55 -112 -9 -5 -109 7
-167 20 -18 4 -29 -10 -74 -96 l-52 -101 67 -68 67 -67 -22 -44 c-42 -83 7
-127 -417 372 l-73 86 26 47 c14 25 31 46 37 46 7 0 157 -18 335 -39z m11917
-378 c33 -69 61 -129 63 -134 3 -8 -77 -53 -83 -47 -9 9 -125 253 -125 263 0
11 54 43 75 44 6 1 37 -56 70 -126z m-12178 -379 l42 -16 -24 -62 c-12 -33
-37 -98 -55 -143 l-31 -82 -42 16 c-23 9 -44 18 -46 19 -5 4 102 284 109 284
2 0 23 -7 47 -16z m12727 -290 c67 -23 148 -101 187 -180 26 -53 32 -78 36
-151 2 -49 0 -94 -5 -101 -7 -11 -22 -12 -63 -5 -50 8 -54 11 -51 33 15 124
13 155 -10 200 -42 82 -122 112 -229 87 -81 -19 -145 -61 -179 -114 -60 -94
-49 -178 35 -260 l53 -51 -39 -38 c-38 -37 -39 -38 -60 -18 -41 35 -96 133
-114 198 -61 225 85 413 321 415 40 1 91 -6 118 -15z m-12793 -552 c6 -6 -83
-409 -92 -416 -3 -2 -463 103 -605 138 -21 6 -22 7 -7 66 9 33 19 60 22 60 4
0 121 -27 261 -60 163 -38 257 -56 261 -49 3 6 16 54 28 107 12 53 27 114 32
136 l10 38 42 -6 c23 -4 45 -10 48 -14z m13154 -345 c21 -125 16 -217 -13
-256 -67 -90 -190 -95 -278 -10 l-31 30 -77 -91 c-79 -94 -92 -121 -83 -170 5
-24 1 -32 -26 -49 l-32 -21 -22 48 c-52 108 -24 186 110 307 61 54 77 74 77
96 0 58 0 57 -133 33 -131 -24 -135 -23 -139 29 -5 79 -37 66 307 128 209 37
312 52 316 45 3 -6 14 -59 24 -119z m-13302 -389 c-3 -35 -10 -66 -15 -69 -6
-3 -47 -14 -93 -24 -94 -19 -88 -12 -100 -130 -4 -33 -8 -72 -11 -86 -5 -24 1
-29 82 -65 l86 -38 -5 -59 c-3 -32 -7 -61 -10 -63 -4 -4 -591 308 -606 322 -2
2 0 27 5 56 l9 52 315 82 c173 45 323 82 332 83 16 1 17 -6 11 -61z m13408
-360 c0 -7 6 -95 12 -196 l12 -183 -21 -5 c-12 -3 -35 -4 -50 -2 l-29 3 -9
134 -9 133 -45 -6 c-25 -3 -62 -6 -83 -6 l-38 0 6 -111 c7 -123 4 -129 -53
-129 -39 0 -44 12 -44 93 0 34 -3 79 -7 101 l-6 39 -79 -6 c-44 -3 -82 -8 -85
-10 -3 -3 -1 -70 4 -149 5 -79 9 -144 9 -144 -1 -1 -23 -4 -51 -5 l-50 -4 -14
208 c-7 115 -11 210 -9 212 3 3 443 34 616 44 12 0 22 -5 23 -11z m-13483
-504 l3 -51 -223 -178 c-123 -98 -227 -182 -233 -187 -6 -7 24 -8 85 -4 52 3
159 9 238 12 l142 7 0 -60 0 -60 -317 -6 c-175 -3 -318 -5 -320 -3 -1 1 -4 29
-5 61 l-3 59 195 158 c107 88 206 168 220 179 l25 20 -30 -5 c-16 -3 -116 -8
-221 -12 l-192 -6 -4 53 c-2 30 -2 56 0 59 3 5 490 18 592 16 l45 -1 3 -51z
m13307 -233 c63 -28 129 -91 163 -156 37 -71 43 -215 13 -296 -12 -30 -27 -64
-35 -74 -13 -18 -15 -17 -62 10 -27 15 -50 29 -52 30 -1 1 13 25 32 54 60 89
60 184 0 251 -43 48 -105 70 -193 70 -141 -1 -241 -87 -241 -207 0 -48 28
-124 49 -137 20 -13 11 -23 -40 -44 l-50 -21 -22 47 c-19 40 -22 65 -22 162 0
102 3 121 25 165 34 69 96 128 161 154 73 29 201 25 274 -8z m-13397 -661 c65
-29 135 -101 168 -174 24 -52 28 -74 28 -146 0 -69 -5 -94 -24 -135 -32 -65
-89 -121 -159 -154 -48 -22 -69 -26 -151 -26 -83 0 -101 3 -145 27 -167 87
-236 298 -153 465 71 142 281 211 436 143z m13231 -145 c161 -24 295 -46 297
-48 2 -2 -1 -32 -7 -66 -11 -61 -12 -63 -38 -58 -14 3 -154 24 -311 47 -157
23 -288 45 -292 49 -3 3 -2 32 4 64 9 49 13 57 31 57 12 0 154 -20 316 -45z
m-105 -496 c160 -56 295 -105 299 -109 4 -4 1 -36 -8 -72 l-17 -65 -126 -22
c-70 -12 -173 -30 -230 -39 l-103 -17 175 -143 c97 -79 176 -150 176 -158 0
-31 -23 -106 -34 -110 -11 -4 -613 120 -621 128 -6 6 28 118 36 118 5 0 102
-23 216 -50 114 -28 211 -49 216 -47 5 1 -68 66 -162 142 l-171 140 6 35 c3
19 10 37 15 40 5 3 105 21 224 40 118 18 215 36 215 40 0 3 -55 23 -122 44
-68 21 -166 51 -219 67 l-96 30 15 54 c8 30 17 55 20 55 3 0 136 -46 296 -101z
m-12800 -270 c9 -34 15 -63 12 -66 -6 -6 -610 -172 -614 -169 -8 8 -34 117
-29 122 4 4 577 167 608 173 3 1 13 -27 23 -60z m51 -378 c95 -44 149 -141
150 -268 0 -45 -3 -84 -6 -87 -5 -6 -108 10 -116 17 -2 2 2 28 7 58 14 70 -2
141 -37 169 -32 25 -54 25 -86 0 -28 -22 -31 -32 -51 -167 -16 -108 -37 -149
-92 -181 -58 -34 -149 -28 -201 14 -57 46 -95 123 -101 206 l-5 68 59 0 59 0
0 -79 c0 -92 17 -121 70 -121 45 0 65 27 77 107 22 143 30 173 58 211 47 65
139 88 215 53z m12479 -390 c137 -56 251 -103 253 -104 5 -6 -42 -117 -50
-117 -9 0 -580 229 -586 236 -2 2 6 30 19 63 l22 60 47 -18 c25 -11 158 -64
295 -120z m-12112 -343 c50 -103 90 -189 87 -191 -18 -13 -571 -278 -573 -276
-2 2 -42 81 -89 175 l-85 171 44 21 c25 12 46 22 47 22 2 0 29 -54 62 -119
l59 -119 70 35 c39 19 72 37 74 38 2 2 -20 49 -48 105 -28 56 -50 103 -48 105
2 1 21 12 44 23 l40 20 52 -104 52 -104 33 14 c17 7 53 24 78 36 l47 23 -64
135 c-35 74 -64 136 -64 138 0 6 75 43 82 41 4 -1 49 -86 100 -189z m11899
-70 l277 -141 -85 -171 c-47 -94 -86 -172 -88 -174 -1 -2 -23 7 -48 19 l-46
22 60 120 c33 65 59 120 57 122 -2 1 -35 19 -74 38 l-70 35 -52 -104 -52 -104
-44 22 -45 21 50 98 c27 54 49 102 49 107 0 4 -34 24 -75 45 l-75 37 -65 -130
c-36 -72 -69 -130 -75 -130 -16 0 -80 33 -80 42 0 20 181 368 192 368 6 0 136
-64 289 -142z m-101 -841 c0 -5 -14 -28 -30 -52 -36 -53 -26 -51 -310 -66
-118 -6 -228 -14 -244 -18 -27 -6 -17 -14 144 -116 95 -61 177 -113 183 -116
9 -6 -47 -99 -59 -99 -3 0 -124 80 -269 177 l-264 177 15 25 c39 65 18 60 328
80 158 10 289 21 292 23 3 3 -79 59 -181 123 -102 65 -188 122 -191 127 -3 4
9 28 26 53 l31 45 264 -177 c146 -98 265 -182 265 -186z m-11710 227 c59 -92
62 -95 83 -81 145 94 191 118 198 106 5 -8 20 -32 33 -55 l25 -41 -261 -164
c-143 -90 -266 -167 -272 -171 -7 -4 -49 53 -114 156 -56 89 -102 167 -102
172 0 5 18 19 40 32 l40 23 35 -56 c19 -30 51 -80 70 -110 19 -30 38 -55 41
-55 11 0 154 92 154 99 0 4 -4 11 -9 17 -5 5 -32 46 -60 91 l-51 82 37 26 c21
14 41 25 44 25 4 0 35 -43 69 -96z m603 -469 c67 -33 139 -107 171 -175 16
-35 21 -65 21 -130 0 -73 -4 -92 -27 -136 -36 -69 -124 -147 -196 -174 -45
-17 -72 -21 -127 -18 -88 6 -149 33 -216 95 -136 127 -148 316 -27 448 86 94
159 127 273 122 52 -3 85 -11 128 -32z m10164 -420 l198 -175 72 77 72 78 35
-35 35 -35 -146 -165 c-80 -91 -160 -182 -179 -204 l-33 -38 -35 27 c-20 15
-36 32 -36 37 0 6 30 43 66 84 37 41 65 76 63 77 -13 10 -358 314 -378 333
l-24 23 37 45 c21 25 41 46 46 46 5 0 98 -79 207 -175z m-9673 -106 c27 -24
51 -57 62 -85 17 -44 17 -50 -5 -176 l-23 -130 23 -24 c12 -13 26 -24 30 -24
5 0 46 39 92 87 l84 87 45 -40 46 -39 -98 -105 c-54 -58 -154 -163 -223 -235
l-124 -130 -97 94 c-108 107 -136 153 -136 229 0 43 5 57 31 87 47 53 84 69
160 69 l66 0 7 75 c12 147 9 177 -23 213 -27 31 -28 35 -16 65 17 40 38 36 99
-18z m9189 -245 c67 -22 149 -100 188 -179 59 -121 35 -263 -62 -370 -72 -78
-142 -110 -239 -110 -103 1 -162 28 -240 111 -104 112 -125 236 -61 370 17 35
49 78 80 107 99 92 203 114 334 71z m-8267 -545 c4 -6 -329 -464 -365 -501
-15 -16 -23 -12 -128 67 -122 92 -162 143 -170 219 -7 60 24 126 77 165 95 69
233 58 334 -26 16 -13 32 -20 36 -16 4 4 33 43 64 86 l57 77 45 -32 c25 -18
47 -36 50 -39z m7349 -385 c88 -146 161 -269 163 -274 3 -8 -165 -110 -231
-140 -55 -25 -141 -26 -187 -1 -76 40 -116 145 -91 237 16 59 66 129 117 163
25 16 51 32 57 34 6 2 -12 41 -41 89 -29 47 -52 90 -52 96 0 11 78 61 95 61 6
0 82 -119 170 -265z m-6592 -60 c29 -15 54 -28 56 -30 1 -1 -24 -54 -57 -116
l-61 -113 16 -217 c9 -120 14 -220 11 -224 -7 -6 -127 53 -129 64 -1 4 -4 76
-8 160 l-6 152 -130 -89 -130 -89 -59 30 c-71 36 -88 18 149 163 l170 104 59
116 c33 63 61 115 63 115 2 0 27 -12 56 -26z m5932 -305 c72 -154 131 -286
133 -293 3 -12 -45 -36 -275 -142 l-73 -33 -20 39 c-11 22 -20 43 -20 47 0 4
54 32 120 62 66 30 119 57 118 61 -49 110 -64 140 -73 140 -5 0 -39 -14 -75
-31 -137 -65 -127 -63 -150 -19 -11 22 -20 41 -20 44 0 2 47 27 105 55 l105
50 -37 75 c-21 42 -40 76 -44 76 -4 0 -64 -27 -135 -60 -70 -33 -131 -57 -135
-53 -4 4 -15 25 -24 46 l-16 38 113 52 c62 29 147 69 188 89 41 20 77 37 80
37 3 0 64 -126 135 -280z m-676 -306 c56 -169 100 -308 98 -309 -1 -1 -54 -18
-117 -39 -182 -59 -271 -50 -327 35 -34 50 -31 129 6 198 l29 52 -71 49 c-120
81 -167 97 -207 71 -22 -14 -74 38 -58 57 18 22 82 52 126 59 60 9 101 -9 212
-96 98 -76 102 -78 135 -67 19 6 35 13 35 17 0 3 -18 58 -39 122 l-39 117 56
20 c32 11 58 20 59 20 1 1 47 -137 102 -306z m-4324 222 l202 -65 -96 -299
c-53 -165 -99 -303 -103 -306 -5 -6 -104 20 -116 30 -2 2 33 115 77 252 45
137 81 254 81 259 0 6 -63 30 -140 54 -77 24 -140 48 -140 53 0 16 23 87 28
87 3 0 96 -29 207 -65z m533 -151 c24 -4 45 -12 47 -18 2 -6 9 -50 15 -97 l12
-86 96 -18 c53 -10 102 -20 108 -22 6 -2 33 33 59 78 l48 81 51 -7 c27 -3 55
-9 62 -13 8 -5 -45 -95 -168 -282 -99 -151 -183 -281 -187 -289 -7 -10 -18
-11 -62 -2 l-54 11 -54 318 c-29 174 -55 328 -58 341 -5 21 -3 23 18 18 13 -3
44 -9 67 -13z m2964 -23 l27 -10 -16 -48 c-9 -26 -19 -51 -23 -56 -3 -4 -26
-1 -49 8 -105 37 -201 9 -201 -59 0 -48 35 -74 137 -103 107 -30 158 -57 182
-98 47 -77 33 -157 -39 -227 -55 -53 -115 -72 -215 -66 l-60 3 2 40 c2 22 5
50 8 61 5 21 6 21 47 7 52 -18 121 -12 148 12 12 11 20 31 20 51 0 40 -23 59
-100 80 -173 49 -220 80 -240 164 -27 113 39 210 168 247 51 14 160 11 204 -6z
m-795 -142 c74 -36 125 -91 154 -168 17 -46 20 -72 17 -146 -3 -76 -8 -98 -33
-143 -88 -162 -303 -224 -467 -135 -105 57 -158 156 -158 296 0 69 4 91 28
142 80 169 287 238 459 154z m-1281 17 c0 0 75 -110 165 -244 l164 -243 6 163
c3 90 7 196 8 236 l1 72 48 0 c26 0 52 -4 59 -8 9 -6 7 -78 -7 -312 -11 -168
-20 -311 -20 -317 0 -8 -14 -13 -37 -12 -86 3 -83 -1 -246 241 l-154 227 -6
-136 c-4 -75 -7 -174 -7 -220 l0 -83 -60 0 c-56 0 -60 2 -60 23 0 44 31 543
36 585 l5 44 52 -7 c29 -4 52 -8 53 -9z"/>
<path d="M11490 17738 c-59 -32 -100 -108 -107 -199 -12 -155 72 -264 204
-262 71 0 115 31 151 103 23 47 27 68 27 140 0 72 -4 92 -25 130 -54 95 -163
134 -250 88z"/>
<path d="M9144 17420 c-5 -60 -7 -110 -4 -110 3 0 36 8 73 18 l69 17 -61 93
c-33 50 -62 92 -64 92 -2 0 -8 -49 -13 -110z"/>
<path d="M12678 14432 c-168 -85 -340 -147 -508 -184 -91 -19 -134 -22 -320
-22 -186 0 -229 3 -320 22 -149 33 -296 85 -435 155 l-120 61 -105 0 c-104 1
-106 0 -187 -41 -282 -146 -589 -224 -877 -224 -290 0 -525 70 -764 228 -98
65 -131 75 -232 67 -138 -10 -124 1 -497 -387 -186 -193 -427 -443 -536 -555
-236 -244 -258 -278 -265 -414 -6 -111 11 -165 84 -274 113 -169 236 -481 300
-759 24 -103 28 -142 28 -277 l1 -158 199 0 199 0 -6 173 c-5 181 -19 279 -67
467 -68 266 -172 522 -297 728 l-45 73 109 112 c59 62 267 278 462 480 195
202 358 367 362 367 5 0 30 -13 57 -30 75 -46 269 -136 356 -164 448 -148
1011 -94 1524 144 l92 43 109 -52 c565 -268 1212 -261 1797 19 l126 59 27 -20
c29 -22 604 -606 783 -796 l107 -114 -51 -82 c-207 -331 -344 -809 -365 -1267
l-6 -140 195 0 195 0 7 117 c26 433 148 839 336 1118 80 119 94 156 94 255 0
167 -33 209 -739 917 -444 446 -408 418 -565 429 l-85 5 -157 -79z"/>
<path d="M9527 12883 c-112 -197 -315 -550 -451 -786 l-245 -427 211 2 211 3
81 155 81 155 245 0 245 0 12 -155 c6 -85 12 -156 12 -157 1 -2 111 -3 246 -3
235 0 245 1 245 19 0 11 -49 358 -110 771 -60 414 -110 759 -110 766 0 12 -42
14 -234 14 l-233 0 -206 -357z m343 -361 c7 -117 11 -215 8 -217 -3 -3 -73 -4
-155 -3 l-150 3 136 265 136 265 6 -50 c3 -27 12 -146 19 -263z"/>
<path d="M11145 13228 c-2 -7 -97 -353 -210 -768 -113 -415 -208 -763 -211
-772 -5 -17 8 -18 180 -18 l185 0 10 38 c5 20 62 260 127 532 64 272 119 501
123 508 4 7 47 -213 96 -488 l89 -500 146 0 145 1 295 498 c162 275 296 498
298 496 4 -3 -184 -1035 -194 -1067 -5 -17 10 -18 220 -18 124 0 226 2 226 5
0 3 52 349 115 770 63 420 115 771 115 779 0 14 -31 16 -252 15 l-253 0 -270
-454 c-195 -328 -272 -450 -277 -437 -4 9 -41 204 -83 432 -42 228 -79 425
-82 438 l-5 22 -264 0 c-203 0 -266 -3 -269 -12z"/>
<path d="M7546 9553 c-45 -236 -59 -396 -53 -608 7 -252 36 -408 113 -594 146
-354 452 -671 832 -861 241 -121 449 -179 832 -236 336 -49 548 -96 855 -190
216 -67 330 -113 462 -188 132 -76 182 -90 305 -84 92 5 104 8 181 48 231 121
329 168 397 192 227 80 426 125 867 194 485 75 637 112 835 199 328 146 629
401 820 695 260 399 318 872 181 1458 l-27 112 -178 0 c-166 0 -179 -1 -175
-17 7 -26 33 -136 53 -223 9 -41 20 -100 24 -130 4 -30 13 -95 20 -145 26
-192 -1 -461 -63 -625 -164 -436 -618 -796 -1132 -899 -55 -11 -221 -36 -370
-56 -148 -19 -315 -45 -370 -56 -320 -64 -758 -220 -995 -353 l-101 -56 -37
24 c-209 131 -622 284 -977 360 -66 14 -136 30 -155 35 -19 6 -141 26 -270 46
-129 20 -294 49 -366 65 -355 77 -623 211 -827 413 -115 114 -183 204 -246
327 -66 128 -94 210 -126 370 -48 231 -38 412 41 770 14 63 27 123 30 133 5
16 -8 17 -174 17 l-180 0 -26 -137z"/>
<path d="M14680 16499 c-28 -38 -53 -76 -56 -83 -6 -16 80 -76 108 -76 28 0
74 26 92 52 9 12 16 38 16 57 0 28 -9 43 -45 78 -25 24 -49 43 -54 43 -5 0
-32 -32 -61 -71z"/>
<path d="M6264 16095 c-46 -24 -114 -78 -114 -91 0 -3 66 -82 146 -175 l145
-170 54 46 c59 51 105 130 105 179 -1 69 -77 179 -151 217 -54 27 -124 25
-185 -6z"/>
<path d="M15356 15958 l-66 -72 28 -29 c15 -16 42 -36 60 -44 65 -27 142 23
142 94 0 25 -10 44 -41 78 -23 25 -45 45 -49 45 -5 0 -38 -32 -74 -72z"/>
<path d="M5640 15414 c0 -3 24 -48 53 -100 l52 -95 47 53 c26 29 48 56 48 59
0 4 -28 18 -62 32 -35 14 -80 33 -100 41 -21 9 -38 14 -38 10z"/>
<path d="M4700 13990 c16 -19 51 -57 78 -83 l49 -48 32 61 c18 34 30 64 26 68
-4 4 -53 14 -110 22 l-103 16 28 -36z"/>
<path d="M17545 12141 l-90 -17 2 -47 c3 -58 24 -92 65 -106 50 -18 78 -13
109 18 24 25 29 38 29 78 0 52 -9 94 -19 92 -3 -1 -46 -9 -96 -18z"/>
<path d="M4035 11619 c-44 -11 -87 -22 -95 -25 -10 -4 22 -24 85 -56 l100 -49
7 48 c10 77 9 103 -4 102 -7 -1 -49 -10 -93 -20z"/>
<path d="M4067 9896 c-119 -43 -183 -144 -157 -248 22 -85 90 -131 196 -131
117 1 212 52 253 136 43 89 13 191 -69 234 -51 27 -160 31 -223 9z"/>
<path d="M5525 6751 c-168 -86 -229 -266 -127 -374 79 -84 190 -75 297 24 115
106 124 255 20 335 -50 38 -132 44 -190 15z"/>
<path d="M6034 5856 c-51 -51 -43 -105 25 -171 l32 -29 69 74 c38 41 69 78 70
82 0 4 -21 23 -46 43 -63 47 -103 48 -150 1z"/>
<path d="M15155 5954 c-137 -71 -139 -227 -3 -349 89 -80 196 -93 278 -34 101
74 98 200 -8 313 -73 76 -194 108 -267 70z"/>
<path d="M6647 5410 c-82 -65 -74 -151 20 -220 l40 -29 62 85 c34 47 64 91 67
99 8 19 -79 76 -124 82 -28 4 -44 0 -65 -17z"/>
<path d="M14298 5045 c-26 -19 -52 -43 -58 -54 -28 -54 8 -135 73 -160 33 -12
42 -12 82 3 24 10 55 26 67 35 l21 18 -58 97 c-33 53 -64 96 -70 96 -5 0 -31
-16 -57 -35z"/>
<path d="M12972 4397 c-69 -26 -97 -77 -80 -145 10 -39 42 -62 87 -62 37 0
111 19 111 29 -1 31 -60 186 -71 188 -8 1 -29 -4 -47 -10z"/>
<path d="M9440 4227 c0 -32 24 -193 29 -199 4 -5 31 33 60 83 29 50 51 92 49
95 -2 2 -34 10 -71 18 -45 9 -67 10 -67 3z"/>
<path d="M11264 4302 c-73 -35 -112 -122 -101 -228 16 -155 131 -257 257 -229
43 9 106 68 121 112 15 45 14 153 -2 201 -43 131 -165 195 -275 144z"/>
</g>
</svg>
